# xmcd
#
# Track frame offsets: 
#        150
#        13879
#        17533
#        35520
#        49392
#        53035
#        65388
#        83541
#        85687
#        103311
#        119662
#        124800
#        141836
#        160707
#
# Disc length: 2819 seconds
#
# Revision: 0
# Processed by: cddbd v1.5.2PL0 Copyright (c) Steve Scherf et al.
# Submitted via: ExactAudioCopy v0.99pb5
#
DISCID=b80b010e
DTITLE=Lancaster Orchestra, The - Never Cried Once When I Could Have
DYEAR=2006
DGENRE=Folk
TTITLE0=I Wish We Never Met
TTITLE1=April
TTITLE2=Pocketchange
TTITLE3=Good Times For A Change
TTITLE4=July
TTITLE5=I Remember That Time So Well
TTITLE6=Take Me Home
TTITLE7=November
TTITLE8=Rocks, Spits And Cries
TTITLE9=Save Me From Myself
TTITLE10=January
TTITLE11=Old Photograph
TTITLE12=The Straight And The Narrow
TTITLE13=Never Cried Once When I Could Have - Midnight
EXTD=
EXTT0=
EXTT1=
EXTT2=
EXTT3=
EXTT4=
EXTT5=
EXTT6=
EXTT7=
EXTT8=
EXTT9=
EXTT10=
EXTT11=
EXTT12=
EXTT13=
PLAYORDER=
